SplineFontDB: 1.0
FontName: MScore1-20
FullName: MuseScore 20
FamilyName: MScore1
Weight: 20
Copyright: This font is distributed under the GNU General Public License. As a special exception, if you create a document which uses this font, and embed this font or unaltered portions of this font into the document, this font does not by itself cause the resulting document to be covered by the GNU General Public License.
Version: 1.0
ItalicAngle: 0
UnderlinePosition: -100
UnderlineWidth: 50
Ascent: 600
Descent: 400
XUID: [1021 437 116440368 15390959]
UniqueID: 4011536
FSType: 0
OS2Version: 2
OS2_WeightWidthSlopeOnly: 0
OS2_UseTypoMetrics: 1
CreationTime: 1122244955
ModificationTime: 1169242967
PfmFamily: 17
TTFWeight: 400
TTFWidth: 5
LineGap: 90
VLineGap: 0
Panose: 2 0 5 3 0 0 0 0 0 0
OS2TypoAscent: 0
OS2TypoAOffset: 1
OS2TypoDescent: 0
OS2TypoDOffset: 1
OS2TypoLinegap: 90
OS2WinAscent: 0
OS2WinAOffset: 1
OS2WinDescent: 0
OS2WinDOffset: 1
HheadAscent: 0
HheadAOffset: 1
HheadDescent: 0
HheadDOffset: 1
OS2SubXSize: 650
OS2SubYSize: 700
OS2SubXOff: 0
OS2SubYOff: 140
OS2SupXSize: 650
OS2SupYSize: 700
OS2SupXOff: 0
OS2SupYOff: 480
OS2StrikeYSize: 48
OS2StrikeYPos: 258
OS2Vendor: 'PfEd'
ScriptLang: 1
 1 latn 1 dflt 
LangName: 1033 "" "" "" "FontForge 1.0 : MuseScore 20 : 29-12-2006" 
Encoding: UnicodeBmp
UnicodeInterp: none
NameList: Adobe Glyph List
DisplaySize: -96
AntiAlias: 1
FitToEm: 1
WinInfo: 57584 8 8
BeginPrivate: 8
BlueValues 30 [-4 0 266 292 472 472 500 500]
OtherBlues 11 [-146 -146]
BlueScale 8 0.039625
BlueShift 2 16
BlueFuzz 1 2
StdHW 4 [30]
StdVW 5 [116]
ExpansionFactor 4 0.06
EndPrivate
TeXData: 1 0 0 346030 173015 115343 276824 1048576 115343 783286 444596 497025 792723 393216 433062 380633 303038 157286 324010 404750 52429 2506097 1059062 262144
BeginChars: 65537 43
StartChar: plus
Encoding: 43 43 1
Width: 250
GlyphClass: 2
Flags: HMW
HStem: 224 52<38 100 60 100 152 190>
VStem: 100 52<184 224 164 224 276 316>
Fore
116 374 m 1
 126 376 140 372 146 364 c 1
 152 360 152 356 152 316 c 2
 152 276 l 1
 190 276 l 2
 232 276 234 276 240 272 c 1
 242 268 244 266 248 264 c 1
 248 260 250 256 250 252 c 0
 250 244 248 242 248 238 c 1
 244 236 242 232 240 230 c 0
 234 224 232 224 190 224 c 2
 152 224 l 1
 152 184 l 2
 152 142 152 140 146 136 c 1
 144 132 140 130 138 128 c 1
 134 126 132 126 126 126 c 0
 120 126 116 126 112 128 c 1
 104 136 l 2
 100 140 100 142 100 184 c 2
 100 224 l 1
 60 224 l 2
 16 224 16 224 10 230 c 0
 8 232 4 236 4 238 c 1
 0 242 0 244 0 252 c 0
 0 256 0 260 4 264 c 1
 4 266 8 268 10 272 c 1
 16 276 16 276 60 276 c 2
 100 276 l 1
 100 316 l 1
 100 358 l 1
 104 362 l 1
 106 368 112 372 116 374 c 1
EndSplineSet
EndChar
StartChar: comma
Encoding: 44 44 2
Width: 114
GlyphClass: 2
Flags: HMW
HStem: -156 272
VStem: 2 114
Fore
48 114 m 1
 48 116 56 116 60 116 c 0
 76 114 88 108 98 98 c 0
 112 84 116 64 116 36 c 0
 112 -16 96 -64 66 -132 c 0
 56 -152 56 -154 52 -156 c 0
 42 -160 28 -152 28 -144 c 0
 28 -142 32 -136 32 -132 c 1
 34 -128 40 -116 44 -104 c 0
 64 -62 70 -36 64 -20 c 0
 60 -8 56 -4 38 4 c 0
 26 8 24 12 16 16 c 1
 10 24 6 32 2 40 c 1
 0 48 0 66 4 76 c 0
 10 96 26 108 48 114 c 1
EndSplineSet
EndChar
StartChar: hyphen
Encoding: 45 45 3
Width: 166
GlyphClass: 2
Flags: HMW
HStem: 152 28<50 84 84 124>
VStem: 0 164<164 170>
Fore
8 180 m 1
 84 180 l 2
 164 180 160 180 164 176 c 0
 168 172 168 162 164 158 c 1
 160 152 164 152 84 152 c 0
 16 152 12 152 8 154 c 0
 4 156 0 160 0 168 c 0
 0 172 4 176 8 180 c 1
EndSplineSet
EndChar
StartChar: period
Encoding: 46 46 4
Width: 114
GlyphClass: 2
Flags: HMW
HStem: 2 110
VStem: 2 110
Fore
44 112 m 0
 64 118 84 112 98 98 c 0
 112 84 118 64 112 44 c 0
 110 32 106 24 98 16 c 1
 92 8 82 4 72 2 c 0
 52 -4 32 4 16 16 c 1
 4 32 -4 52 2 72 c 0
 4 82 8 92 16 98 c 1
 24 106 32 110 44 112 c 0
EndSplineSet
EndChar
StartChar: zero
Encoding: 48 48 5
Width: 366
GlyphClass: 2
Flags: HMW
HStem: 0 20G<174 194> 460 20G
VStem: 2 114<216 288> 250 116
Fore
164 500 m 1
 188 500 l 2
 212 500 228 496 252 484 c 0
 286 468 314 436 336 394 c 0
 348 368 356 342 360 312 c 0
 366 288 366 278 366 250 c 0
 366 216 364 192 356 160 c 0
 340 104 310 56 272 28 c 0
 260 20 242 12 232 8 c 0
 214 2 204 0 184 0 c 0
 164 0 152 2 136 8 c 0
 124 12 106 20 96 28 c 0
 44 64 12 130 2 212 c 0
 0 228 0 272 2 288 c 0
 8 328 16 362 32 394 c 0
 62 454 108 492 164 500 c 1
196 468 m 1
 188 472 178 472 170 468 c 1
 144 462 128 434 120 382 c 0
 116 360 116 344 116 266 c 0
 116 164 116 136 122 106 c 0
 128 76 136 54 148 42 c 0
 168 24 200 24 218 42 c 0
 232 54 240 76 244 106 c 0
 248 124 248 134 250 160 c 0
 252 192 252 344 248 360 c 1
 244 428 228 462 196 468 c 1
EndSplineSet
EndChar
StartChar: one
Encoding: 49 49 6
Width: 318
GlyphClass: 2
Flags: HMW
VStem: 116 116<240 302 302 368 368 368>
Fore
120 502 m 0
 122 504 126 504 144 496 c 0
 168 484 180 484 208 496 c 1
 212 500 220 500 220 500 c 1
 224 500 228 496 232 492 c 1
 232 302 l 2
 232 180 232 112 234 104 c 0
 238 66 260 36 288 26 c 0
 292 24 298 24 302 24 c 0
 312 24 312 22 316 18 c 1
 320 12 318 4 312 2 c 0
 306 0 288 0 240 8 c 0
 204 12 192 12 176 12 c 0
 160 12 146 12 110 8 c 0
 64 0 44 0 38 2 c 0
 32 4 30 12 34 18 c 0
 36 22 38 24 48 24 c 0
 52 24 60 24 62 26 c 2
 92 36 112 66 116 104 c 2
 116 368 l 1
 112 380 100 384 92 378 c 1
 92 376 76 344 58 306 c 0
 40 268 24 236 24 234 c 1
 14 224 -4 232 -2 244 c 1
 0 248 16 284 58 376 c 0
 90 444 118 500 120 502 c 0
EndSplineSet
EndChar
StartChar: two
Encoding: 50 50 7
Width: 366
GlyphClass: 2
Flags: HMW
HStem: 0 20G<222 238>
VStem: 0 368
Fore
148 500 m 0
 156 500 190 500 200 498 c 0
 224 494 248 488 268 476 c 0
 310 456 338 424 348 384 c 0
 352 374 352 372 352 354 c 0
 352 332 352 326 346 308 c 0
 336 270 312 240 272 216 c 0
 252 204 232 192 180 172 c 0
 168 168 152 160 142 156 c 0
 124 148 104 136 104 136 c 1
 114 136 l 1
 124 140 146 138 160 136 c 0
 184 130 208 120 232 104 c 0
 248 92 256 88 268 84 c 0
 288 76 310 76 324 84 c 1
 336 88 340 96 344 108 c 0
 346 114 350 116 356 116 c 0
 360 116 368 112 368 106 c 0
 368 102 360 84 356 76 c 0
 338 40 300 12 258 4 c 1
 250 0 244 0 232 0 c 0
 212 0 204 2 188 6 c 0
 168 12 154 22 136 40 c 0
 116 60 108 64 88 66 c 0
 70 68 52 60 40 48 c 0
 32 40 28 28 24 16 c 1
 22 4 20 4 16 0 c 1
 12 -2 4 0 0 8 c 1
 -2 14 4 44 12 64 c 0
 22 88 42 116 68 140 c 0
 84 152 92 160 118 178 c 0
 180 224 202 246 220 280 c 0
 224 288 230 308 232 318 c 0
 240 360 234 414 218 444 c 0
 204 468 184 478 160 476 c 0
 140 476 124 468 116 454 c 1
 116 440 l 2
 116 430 118 424 132 406 c 0
 138 398 144 390 146 386 c 0
 148 380 148 380 148 370 c 0
 148 352 142 336 128 324 c 1
 122 316 118 314 112 312 c 1
 90 300 72 300 50 312 c 0
 42 316 40 316 32 324 c 0
 26 330 24 334 20 340 c 1
 12 360 10 380 16 404 c 0
 32 456 84 492 148 500 c 0
EndSplineSet
EndChar
StartChar: three
Encoding: 51 51 8
Width: 332
GlyphClass: 2
Flags: HMW
HStem: 0 24 250 30<126 146> 476 24<128 168>
VStem: 216 100<368 408> 216 116<116 134 116 192 116 192>
Fore
128 500 m 1xf0
 140 500 176 500 192 498 c 0
 252 490 294 464 310 428 c 0
 316 412 316 404 316 380 c 0xf0
 316 356 316 344 312 332 c 0
 308 312 296 296 280 288 c 0
 270 284 268 280 264 272 c 0
 260 264 264 252 270 248 c 1
 272 244 276 242 282 240 c 1
 300 230 312 218 320 200 c 0
 330 180 334 160 332 134 c 0
 332 100 320 72 296 48 c 0
 266 20 220 2 164 0 c 0
 108 0 60 16 28 44 c 1
 16 60 8 72 4 88 c 2
 0 96 0 100 0 112 c 0
 0 124 0 126 4 134 c 1
 10 152 26 168 44 176 c 1
 52 178 56 178 66 178 c 0
 76 178 80 178 86 176 c 0
 112 168 128 144 132 118 c 1
 132 104 128 100 112 86 c 1
 104 82 100 76 96 76 c 1
 86 62 90 44 106 34 c 0
 120 24 150 20 166 24 c 0
 194 32 210 62 216 116 c 2xe8
 216 192 l 2
 212 228 202 244 180 248 c 1
 176 250 164 250 128 250 c 0
 80 250 80 250 76 256 c 1
 72 260 72 268 76 272 c 1
 78 280 78 280 126 280 c 2
 176 280 l 1
 186 282 192 284 200 290 c 1
 208 300 210 308 214 326 c 0
 216 338 216 390 216 408 c 0
 210 456 188 476 148 476 c 0
 124 476 102 468 96 456 c 1
 92 452 92 452 92 444 c 0
 92 438 92 436 94 432 c 0
 96 428 100 428 114 416 c 1
 118 414 122 410 124 408 c 1
 126 404 126 402 126 394 c 0
 126 372 112 352 88 342 c 1
 80 340 62 338 52 340 c 1
 34 348 20 360 14 380 c 0
 12 384 12 388 12 398 c 0
 12 412 14 420 20 432 c 0
 36 468 78 492 128 500 c 1xf0
EndSplineSet
EndChar
StartChar: four
Encoding: 52 52 9
Width: 400
GlyphClass: 2
Flags: HMW
HStem: 124 30<66 108 108 112 112 196 312 352>
VStem: 196 116<120 124 116 124 154 224 224 260> 292 20
Fore
296 500 m 0xc0
 304 504 316 496 316 488 c 1
 172 320 l 2
 94 228 30 156 30 154 c 1
 112 154 l 1
 196 154 l 1
 196 224 l 2xc0
 196 296 196 296 200 300 c 2
 200 304 204 308 216 316 c 0
 256 342 268 356 284 396 c 2
 288 402 292 408 292 410 c 1xa0
 296 412 304 414 308 412 c 1
 312 408 312 416 312 278 c 2
 312 154 l 1
 352 154 l 2
 384 154 388 154 392 152 c 0
 396 150 400 146 400 140 c 0
 400 132 396 128 392 128 c 2
 388 124 384 124 352 124 c 2
 312 124 l 1
 312 120 l 2
 312 112 314 96 316 88 c 0
 326 50 350 26 380 24 c 0
 392 24 392 22 396 18 c 1
 400 12 396 4 392 2 c 1
 384 0 366 0 320 8 c 0
 258 16 250 16 188 8 c 0
 142 0 124 0 116 2 c 1
 112 4 108 12 112 18 c 1
 116 22 116 24 128 24 c 0
 148 24 164 36 178 56 c 0
 188 72 196 96 196 120 c 2
 196 124 l 1
 108 124 l 2
 24 124 22 124 16 128 c 1
 4 130 -2 140 -2 148 c 0
 -2 152 0 154 8 164 c 0
 58 224 94 288 116 350 c 0
 128 392 136 422 138 476 c 0
 140 490 140 492 140 494 c 1
 146 500 148 500 168 496 c 0
 198 488 204 488 224 488 c 2
 252 488 l 1
 264 492 292 498 296 500 c 0xc0
EndSplineSet
EndChar
StartChar: five
Encoding: 53 53 10
Width: 336
GlyphClass: 2
Flags: HMW
HStem: 2 22 292 28<142 204 168 176> 460 20G
VStem: 28 30 232 116
Fore
36 498 m 1
 40 500 40 500 42 500 c 0
 44 500 54 498 68 496 c 0
 154 484 218 484 308 498 c 0
 318 500 326 500 328 500 c 0
 332 500 338 494 340 490 c 1
 340 486 338 484 328 474 c 0
 278 430 214 404 136 394 c 0
 120 392 88 390 74 390 c 0
 68 390 64 388 60 380 c 0
 58 376 58 376 58 328 c 2
 58 278 l 1
 66 284 l 2
 86 302 108 312 134 318 c 0
 144 320 148 320 168 320 c 2
 204 320 l 2
 292 308 340 262 348 180 c 0
 352 148 346 120 332 94 c 0
 324 80 316 68 304 56 c 0
 276 28 240 12 198 4 c 0
 180 0 146 0 128 2 c 0
 68 12 24 40 8 76 c 0
 2 90 0 96 0 112 c 0
 0 124 0 126 4 134 c 1
 10 152 26 168 44 176 c 1
 52 178 56 178 66 178 c 0
 76 178 80 178 86 176 c 0
 112 168 128 144 132 118 c 1
 132 104 128 100 112 86 c 0
 100 76 96 74 92 68 c 0
 88 60 92 48 98 40 c 1
 108 30 132 24 160 24 c 0
 192 24 212 42 224 84 c 0
 230 104 232 138 232 172 c 0
 230 242 212 282 176 292 c 1
 156 292 l 2
 128 292 108 286 88 276 c 0
 76 270 68 264 60 252 c 0
 54 244 52 244 48 242 c 1
 40 240 32 244 30 250 c 1
 28 252 28 272 28 370 c 2
 28 488 l 1
 32 492 l 1
 32 492 36 496 36 498 c 1
EndSplineSet
EndChar
StartChar: six
Encoding: 54 54 11
Width: 340
GlyphClass: 2
Flags: HMW
HStem: 0 20G<164 180> 256 22 476 24<176 188 188 192>
VStem: 232 108<128 152 128 160>
Fore
174 500 m 2
 188 500 l 2
 226 500 264 488 288 470 c 0
 308 456 320 440 324 420 c 1
 328 412 328 410 328 398 c 0
 328 386 328 384 324 376 c 1
 318 356 302 340 284 334 c 0
 276 332 272 332 264 332 c 0
 252 332 248 332 242 334 c 0
 216 344 198 368 198 394 c 0
 198 404 198 404 200 408 c 1
 208 416 l 1
 212 418 218 422 222 424 c 1
 226 428 232 432 232 436 c 1
 236 440 236 440 236 446 c 0
 236 452 236 454 232 458 c 1
 228 464 224 468 216 472 c 0
 208 476 198 476 186 476 c 0
 164 476 148 468 136 450 c 0
 120 424 114 392 116 312 c 2
 116 266 l 1
 126 270 l 2
 132 272 140 274 146 276 c 0
 156 278 158 278 176 278 c 0
 204 278 228 276 250 268 c 0
 292 252 320 228 332 190 c 0
 338 172 340 164 340 140 c 0
 340 118 338 108 332 92 c 0
 326 72 318 60 304 44 c 0
 280 22 248 8 204 2 c 2
 200 0 186 0 174 0 c 0
 152 0 144 2 128 8 c 0
 60 28 16 100 2 206 c 0
 0 224 0 270 2 286 c 0
 8 338 24 382 48 418 c 0
 76 460 116 488 160 496 c 1
 166 498 172 500 174 500 c 2
184 256 m 0
 172 258 156 256 144 250 c 0
 128 242 120 224 118 192 c 0
 116 176 116 104 118 88 c 0
 120 62 124 48 134 36 c 0
 148 22 178 18 200 30 c 0
 212 36 220 48 224 68 c 0
 230 88 232 98 232 140 c 0
 232 180 230 192 224 210 c 1
 220 236 206 250 184 256 c 0
EndSplineSet
EndChar
StartChar: seven
Encoding: 55 55 12
Width: 366
GlyphClass: 2
Flags: HMW
HStem: -4 20G<36 40 194 198> 460 20G
VStem: 0 28<258 432>
Fore
8 498 m 1
 12 500 20 500 24 496 c 1
 28 494 28 490 28 478 c 0
 28 470 28 468 32 464 c 1
 32 460 40 456 40 456 c 1
 42 456 44 458 48 460 c 1
 80 500 128 512 176 486 c 0
 188 480 196 472 208 462 c 0
 226 448 240 442 260 444 c 0
 288 444 314 460 336 488 c 0
 344 500 348 500 354 500 c 0
 362 500 368 492 368 484 c 1
 366 480 364 478 360 472 c 0
 348 452 312 398 302 384 c 0
 242 284 212 208 200 128 c 1
 200 88 l 2
 200 60 200 50 204 24 c 1
 208 12 208 8 206 6 c 1
 204 0 200 -4 196 -4 c 0
 192 -4 184 0 174 2 c 0
 144 12 136 12 116 12 c 0
 96 12 90 12 60 2 c 2
 48 0 40 -4 40 -4 c 1
 32 -4 26 4 26 8 c 0
 26 12 36 36 52 68 c 0
 90 144 134 212 216 324 c 2
 242 360 l 1
 248 368 l 1
 248 368 246 368 244 366 c 1
 236 362 220 356 212 354 c 0
 200 352 178 352 168 356 c 0
 152 360 140 366 126 380 c 0
 104 400 84 412 66 412 c 1
 52 410 40 400 36 380 c 1
 30 364 28 356 28 308 c 2
 28 258 l 1
 24 252 20 252 16 252 c 0
 8 252 4 252 2 258 c 1
 0 260 0 268 0 376 c 0
 0 490 0 492 4 494 c 1
 4 496 6 496 8 498 c 1
EndSplineSet
EndChar
StartChar: eight
Encoding: 56 56 13
Width: 366
GlyphClass: 2
Flags: HMW
HStem: 476 24<164 180>
VStem: 4 356
Fore
164 500 m 0
 178 500 212 500 226 498 c 0
 268 492 302 476 324 454 c 0
 348 432 356 404 350 372 c 0
 346 344 328 312 298 280 c 1
 288 272 l 1
 296 266 l 2
 314 256 328 244 340 230 c 0
 374 188 382 136 360 90 c 0
 336 44 288 12 220 2 c 0
 204 0 164 0 148 2 c 0
 108 8 72 24 46 44 c 0
 8 76 -8 128 4 172 c 0
 12 192 26 210 56 240 c 2
 76 260 l 1
 70 264 l 2
 54 276 36 296 28 314 c 0
 6 356 12 406 44 444 c 0
 72 474 112 494 164 500 c 0
222 474 m 0
 208 476 184 476 176 476 c 1
 160 472 148 466 136 456 c 1
 124 442 116 428 116 410 c 0
 116 392 120 376 132 364 c 0
 140 356 146 354 200 324 c 0
 230 304 256 290 258 288 c 1
 260 288 282 314 292 332 c 0
 302 348 308 366 308 384 c 0
 312 428 278 464 222 474 c 0
170 204 m 0
 136 224 108 240 106 240 c 0
 104 240 72 208 68 200 c 2
 50 178 44 156 44 134 c 0
 46 108 56 84 76 64 c 0
 96 44 120 32 152 26 c 0
 162 24 166 24 182 24 c 0
 196 24 200 24 208 26 c 0
 224 30 238 40 248 48 c 1
 280 84 276 140 240 164 c 1
 236 168 204 184 170 204 c 0
EndSplineSet
EndChar
StartChar: nine
Encoding: 57 57 14
Width: 340
GlyphClass: 2
Flags: HMW
HStem: 476 24<148 168 148 184>
VStem: 0 110<348 372>
Fore
148 500 m 0
 160 500 190 500 200 496 c 2
 224 492 248 480 268 460 c 0
 284 442 296 426 308 402 c 0
 324 370 332 336 338 294 c 0
 340 276 340 230 338 214 c 0
 332 162 316 118 292 82 c 0
 268 46 236 20 200 8 c 0
 138 -12 58 8 28 56 c 0
 22 64 18 70 16 80 c 2
 12 88 12 90 12 102 c 0
 12 114 12 116 16 124 c 1
 22 144 38 160 56 166 c 0
 64 168 68 168 78 168 c 0
 88 168 92 168 98 166 c 0
 124 156 142 132 142 106 c 0
 142 96 142 96 140 92 c 1
 132 84 l 1
 128 82 122 78 118 76 c 1
 114 72 108 68 108 64 c 1
 104 60 104 60 104 54 c 0
 104 48 104 46 108 42 c 1
 112 36 116 32 124 28 c 0
 132 24 142 24 154 24 c 0
 176 24 192 32 204 50 c 0
 220 76 226 108 224 188 c 2
 224 234 l 1
 214 230 l 2
 208 228 200 226 194 224 c 0
 184 222 182 222 164 222 c 0
 136 222 112 224 90 232 c 0
 48 248 20 272 8 310 c 0
 2 328 0 336 0 360 c 0
 0 382 2 392 8 408 c 0
 14 428 22 440 36 456 c 0
 62 480 96 494 148 500 c 0
184 476 m 1
 168 476 l 2
 140 476 122 462 116 432 c 0
 110 412 110 402 110 360 c 0
 110 320 110 308 116 290 c 0
 120 270 128 256 140 252 c 1
 162 240 192 244 206 258 c 0
 216 268 220 284 222 308 c 0
 224 324 224 396 222 412 c 0
 220 452 208 470 184 476 c 1
EndSplineSet
EndChar
StartChar: f
Encoding: 102 102 15
Width: 320
GlyphClass: 2
Flags: HMW
HStem: 244 40<70 136 70 136 104 126 264 288 288 292 292 306> 436 36<344 352 352 358>
VStem: -102 58<-128 -100>
Fore
332 472 m 2
 352 472 l 2
 370 472 382 468 396 462 c 0
 424 448 436 428 436 402 c 0
 436 392 436 378 432 368 c 0
 428 352 416 336 404 332 c 1
 382 320 352 330 344 354 c 1
 340 362 340 376 344 384 c 0
 346 388 352 392 360 396 c 0
 372 404 378 412 380 420 c 1
 380 432 376 434 358 436 c 0
 332 436 316 428 304 408 c 0
 290 388 282 364 268 308 c 1
 268 296 264 284 264 284 c 1
 292 284 l 2
 320 284 324 284 328 280 c 1
 336 276 340 268 336 256 c 1
 336 250 332 248 328 244 c 1
 288 244 l 1
 252 244 l 1
 226 156 l 2
 194 52 188 38 168 -4 c 0
 124 -92 68 -152 16 -168 c 0
 -10 -176 -36 -176 -60 -164 c 0
 -88 -150 -102 -128 -102 -104 c 0
 -102 -94 -100 -80 -96 -68 c 0
 -92 -52 -80 -36 -70 -32 c 0
 -48 -20 -18 -32 -8 -56 c 1
 -6 -64 -6 -78 -8 -84 c 1
 -12 -88 -16 -92 -24 -98 c 0
 -38 -106 -44 -112 -44 -122 c 0
 -44 -132 -40 -136 -24 -136 c 0
 -8 -136 -2 -136 8 -132 c 0
 24 -124 36 -106 44 -76 c 2
 48 -68 68 6 88 90 c 2
 126 244 l 1
 100 244 l 1
 70 244 l 1
 64 248 60 250 60 256 c 1
 56 268 60 276 70 280 c 1
 72 284 80 284 104 284 c 2
 136 284 l 1
 140 292 l 2
 150 320 170 356 192 384 c 0
 204 396 224 418 236 428 c 0
 268 452 300 468 332 472 c 2
EndSplineSet
EndChar
StartChar: m
Encoding: 109 109 16
Width: 438
GlyphClass: 2
Flags: HMW
HStem: 0 20G<166 180 180 204>
VStem: -40 492
Fore
92 298 m 1
 96 298 104 300 108 300 c 1
 116 298 118 298 124 296 c 1
 134 290 142 280 148 264 c 1
 148 256 l 1
 158 264 l 2
 182 288 212 300 232 300 c 1
 252 296 266 284 272 260 c 2
 274 254 l 1
 280 262 l 1
 308 288 340 304 364 296 c 0
 392 290 416 256 412 226 c 0
 412 222 404 184 394 140 c 0
 384 98 376 60 376 60 c 1
 376 56 378 52 382 52 c 0
 390 52 406 64 424 78 c 0
 436 88 440 92 446 90 c 0
 452 88 456 80 452 72 c 0
 448 64 414 36 392 20 c 0
 350 -8 308 -16 292 4 c 1
 286 8 284 14 284 24 c 0
 284 34 286 40 304 120 c 0
 328 212 328 216 324 224 c 1
 322 232 318 232 310 232 c 0
 300 232 284 220 276 208 c 1
 276 206 264 172 248 112 c 0
 232 60 220 16 220 16 c 2
 218 12 212 6 208 4 c 1
 204 0 l 1
 180 0 l 2
 152 0 148 0 144 6 c 1
 144 12 l 2
 144 14 156 60 172 112 c 0
 190 180 198 208 200 214 c 1
 200 232 190 238 172 228 c 0
 164 224 152 216 148 206 c 0
 146 202 132 160 114 108 c 0
 96 60 82 16 80 14 c 2
 78 8 72 4 66 2 c 0
 60 0 16 0 12 2 c 0
 8 4 4 8 4 12 c 0
 4 14 20 58 38 112 c 0
 72 216 72 216 68 224 c 1
 68 232 64 232 56 232 c 0
 36 232 14 204 -4 156 c 0
 -12 140 -14 136 -22 132 c 0
 -28 128 -36 128 -40 132 c 1
 -46 136 -44 142 -32 170 c 0
 -4 240 44 288 92 298 c 1
EndSplineSet
EndChar
StartChar: p
Encoding: 112 112 17
Width: 364
GlyphClass: 2
Flags: W
Fore
68 292 m 1
 76 292 92 292 104 288 c 0
 120 284 132 272 140 256 c 2
 144 252 144 246 146 244 c 1
 146 240 148 240 150 244 c 1
 154 248 168 260 180 268 c 0
 196 278 208 284 228 288 c 0
 240 292 264 292 278 288 c 0
 296 284 312 276 324 264 c 0
 340 248 348 232 354 208 c 0
 356 200 356 194 356 178 c 0
 356 152 352 134 344 110 c 0
 328 62 278 12 228 -4 c 0
 216 -8 204 -8 190 -8 c 0
 168 -8 152 -4 132 6 c 2
 124 8 118 12 116 12 c 0
 110 12 104 10 100 8 c 1
 98 4 70 -80 68 -84 c 1
 68 -96 76 -106 86 -112 c 0
 92 -116 96 -116 112 -118 c 0
 124 -120 128 -132 120 -140 c 1
 116 -146 116 -146 100 -144 c 0
 64 -142 44 -142 -4 -142 c 0
 -52 -142 -70 -142 -106 -144 c 0
 -122 -146 -124 -146 -128 -140 c 1
 -134 -136 -132 -124 -126 -120 c 0
 -124 -118 -122 -118 -98 -116 c 0
 -72 -114 -56 -112 -48 -108 c 0
 -42 -104 -36 -100 -32 -96 c 1
 -32 -92 70 204 72 216 c 1
 76 228 76 240 68 242 c 1
 64 244 56 244 48 240 c 0
 30 230 8 200 -12 152 c 2
 -20 136 l 1
 -32 128 -46 126 -52 136 c 0
 -56 142 -54 146 -36 180 c 0
 -4 248 28 282 68 292 c 1
244 240 m 0
 236 244 228 244 220 240 c 1
 184 232 152 176 136 104 c 0
 128 74 130 52 138 40 c 0
 152 24 188 30 208 56 c 0
 220 72 238 114 248 160 c 0
 260 200 260 216 252 232 c 1
 252 236 248 238 244 240 c 0
EndSplineSet
EndChar
StartChar: r
Encoding: 114 114 18
Width: 218
GlyphClass: 2
Flags: HMW
HStem: 0 20G<24 48> 220 86
Fore
214 306 m 1
 220 308 244 306 252 304 c 0
 272 298 286 286 288 268 c 0
 288 250 276 230 260 222 c 1
 252 220 252 220 244 220 c 0
 226 220 218 224 212 244 c 0
 208 256 204 260 200 262 c 0
 184 270 148 250 136 228 c 0
 134 224 124 188 108 120 c 0
 92 64 80 16 80 16 c 1
 76 8 72 4 66 2 c 0
 62 0 60 0 38 0 c 0
 12 0 10 0 6 4 c 1
 4 12 2 10 34 132 c 0
 60 236 64 246 64 254 c 0
 64 264 62 268 56 272 c 1
 52 276 44 274 36 272 c 1
 24 264 6 242 0 222 c 0
 -4 212 -18 204 -28 212 c 0
 -32 216 -32 220 -28 232 c 0
 -16 262 0 282 26 296 c 0
 64 316 112 308 132 276 c 1
 136 272 l 1
 140 276 l 1
 164 292 188 302 214 306 c 1
EndSplineSet
EndChar
StartChar: s
Encoding: 115 115 19
Width: 206
GlyphClass: 2
Flags: HMW
HStem: 0 20G<96 116> 252 20G
VStem: 24 216
Fore
148 292 m 1
 168 292 l 2
 184 292 194 288 208 282 c 0
 228 272 242 250 240 228 c 0
 240 212 232 200 220 196 c 0
 206 192 188 200 182 210 c 1
 180 216 180 220 184 224 c 1
 194 240 192 260 180 266 c 1
 174 268 168 268 160 266 c 0
 144 264 130 250 126 236 c 0
 120 216 128 202 152 188 c 0
 196 164 212 148 220 124 c 2
 224 120 224 116 224 104 c 0
 224 88 222 80 216 68 c 0
 208 46 188 26 164 14 c 0
 144 4 128 0 104 0 c 0
 86 0 76 2 62 10 c 0
 42 20 28 36 24 56 c 0
 18 78 28 104 44 110 c 0
 64 116 84 100 86 82 c 0
 86 74 84 72 76 64 c 1
 68 58 64 54 64 48 c 0
 64 34 88 24 112 28 c 0
 140 36 156 48 162 68 c 0
 168 88 156 108 132 126 c 0
 128 128 118 136 110 140 c 0
 84 156 76 164 68 178 c 2
 64 184 l 1
 64 198 l 2
 64 208 64 214 68 220 c 2
 70 230 76 244 84 252 c 1
 98 272 122 288 148 292 c 1
EndSplineSet
EndChar
StartChar: z
Encoding: 122 122 20
Width: 286
GlyphClass: 2
Flags: HMW
HStem: 12 54<48 104>
Fore
88 264 m 0
 96 266 110 266 120 264 c 1
 124 262 136 258 146 256 c 2
 172 244 178 244 200 244 c 0
 226 242 232 244 246 254 c 0
 248 256 252 256 254 256 c 0
 260 256 268 252 268 244 c 1
 270 236 274 240 178 150 c 2
 90 68 l 1
 96 66 l 1
 110 66 128 64 156 60 c 0
 214 52 228 52 240 64 c 0
 250 72 254 88 250 104 c 0
 248 112 248 116 250 120 c 0
 256 128 264 128 270 124 c 0
 274 122 276 116 280 100 c 0
 284 84 286 72 286 60 c 0
 284 12 244 -26 192 -28 c 0
 172 -30 160 -26 128 -8 c 0
 96 8 90 12 60 12 c 0
 38 12 34 12 28 8 c 1
 20 0 16 0 12 0 c 0
 8 0 4 4 2 8 c 0
 0 12 0 16 4 22 c 1
 4 24 44 64 92 108 c 2
 184 196 l 1
 188 200 l 1
 178 196 l 1
 144 196 l 2
 104 192 100 192 64 184 c 0
 48 180 40 180 34 184 c 0
 28 188 28 204 36 220 c 0
 44 240 68 260 88 264 c 0
EndSplineSet
EndChar
StartChar: uniE0F8
Encoding: 57592 57592 21
Width: 540
GlyphClass: 2
Flags: HMW
VStem: 294 34<116 748 979 992 992 998>
Fore
294 1013 m 5
 294 1137 l 5
 312 1137 l 5
 328 1137 l 5
 328 1131 l 6
 328 1105 336 1069 344 1039 c 4
 360 993 380 957 428 877 c 4
 466 817 480 793 494 765 c 4
 514 723 528 687 532 651 c 4
 544 589 532 509 508 429 c 4
 500 405 496 395 492 393 c 5
 488 389 480 385 476 385 c 4
 472 385 462 389 460 393 c 6
 456 395 452 403 452 407 c 4
 452 409 454 415 456 421 c 4
 476 465 488 517 492 563 c 4
 496 581 496 609 494 621 c 4
 486 693 440 769 344 871 c 6
 328 887 l 5
 328 209 l 5
 294 255 l 5
 294 1013 l 5
200 275 m 4
 212 277 240 275 250 275 c 5
 290 265 316 243 326 211 c 4
 328 199 328 175 328 163 c 5
 318 123 290 83 250 51 c 4
 216 27 176 11 140 3 c 4
 124 1 94 1 82 3 c 4
 40 11 12 35 4 69 c 5
 0 79 0 103 2 115 c 4
 12 155 40 195 80 227 c 4
 116 255 158 271 200 275 c 4
EndSplineSet
EndChar
StartChar: uniE0F9
Encoding: 57593 57593 22
Width: 540
GlyphClass: 2
Flags: HMW
VStem: 290 34<118 500 500 536 536 574 777 782 782 788 988 1000> 484 44<532 540 524 558 524 558> 490 40
Fore
290 888 m 5xa0
 290 1138 l 5
 308 1138 l 5
 324 1138 l 5
 324 1126 l 6
 328 1086 338 1048 360 1006 c 4
 376 978 388 958 426 902 c 6
 462 850 l 6
 504 782 524 730 528 678 c 4xc0
 528 646 522 614 508 586 c 5
 508 580 504 574 504 574 c 5
 504 570 508 564 510 558 c 4
 520 534 528 502 532 474 c 4
 534 460 532 430 530 410 c 4
 526 370 514 326 496 282 c 4
 490 270 488 266 480 262 c 4
 474 260 470 260 464 262 c 4
 456 266 452 270 450 274 c 5
 448 282 448 286 454 298 c 4
 474 342 486 386 490 430 c 4
 492 472 488 502 468 540 c 4
 454 570 436 596 404 632 c 4
 392 646 344 694 332 706 c 5
 324 712 l 5
 324 674 l 5
 324 638 l 5
 324 208 l 5
 290 256 l 5
 290 888 l 5xa0
392 854 m 6
 388 862 368 882 352 898 c 6
 324 926 l 5
 324 920 l 6
 324 910 326 894 328 880 c 4
 332 854 342 832 356 804 c 4
 372 774 388 750 432 686 c 4
 444 666 460 642 468 634 c 5
 476 620 l 5
 480 626 l 5
 484 642 484 650 484 670 c 6
 484 696 l 5
 472 746 446 794 392 854 c 6
200 274 m 4
 212 276 240 274 250 274 c 5
 290 264 316 242 326 210 c 4
 328 198 328 174 328 162 c 5
 318 122 290 82 250 50 c 4
 216 26 176 10 140 2 c 4
 124 0 94 0 82 2 c 4
 40 10 12 34 4 68 c 5
 0 78 0 102 2 114 c 4
 12 154 40 194 80 226 c 4
 116 254 158 270 200 274 c 4
EndSplineSet
EndChar
StartChar: uniE0FA
Encoding: 57594 57594 23
Width: 540
GlyphClass: 2
Flags: HMW
VStem: 296 34<112 250 250 302 302 352 547 562 562 570 774 781 988 1000> 478 44<492 560> 482 40<520 537> 496 42
Fore
296 761 m 5xc0
 296 1137 l 5
 314 1137 l 5
 330 1137 l 5
 330 1125 l 6
 334 1069 354 1017 398 943 c 6
 428 897 l 6
 462 845 478 821 490 793 c 4
 506 757 516 729 522 697 c 5xa0
 522 633 l 5xc0
 518 619 514 605 510 593 c 6
 506 581 l 5
 510 569 l 5
 522 545 526 525 530 501 c 4
 534 485 534 449 530 433 c 4
 526 411 520 389 514 373 c 5
 510 369 510 365 510 365 c 5
 516 353 l 6
 534 315 540 281 538 241 c 4
 538 189 526 137 502 87 c 4
 494 73 494 69 486 65 c 4
 480 63 476 63 470 65 c 4
 462 69 458 73 456 77 c 5
 454 85 454 89 458 101 c 5
 480 141 492 185 496 229 c 4x90
 498 265 494 293 478 325 c 4
 462 359 438 389 402 425 c 6
 342 481 l 5
 330 489 l 5
 330 439 l 5
 330 387 l 5
 330 209 l 5
 296 249 l 5
 296 761 l 5xc0
346 907 m 5
 338 913 334 921 332 923 c 4
 330 925 330 925 330 911 c 4
 332 867 346 825 378 773 c 4
 386 757 402 733 434 693 c 6
 468 643 l 6
 472 637 476 629 478 629 c 5xc0
 478 631 480 647 482 657 c 5
 482 691 470 733 446 775 c 4
 426 813 394 853 346 907 c 5
350 689 m 4
 342 697 334 705 332 705 c 5
 330 707 l 5
 330 699 l 6
 330 669 340 631 358 597 c 4
 374 561 390 537 438 473 c 4
 458 447 470 429 478 417 c 4xc0
 482 411 482 409 486 429 c 4
 494 459 492 489 482 517 c 4xa0
 474 541 454 577 434 601 c 4
 414 627 382 661 350 689 c 4
200 273 m 4
 212 275 240 273 250 273 c 5
 290 263 316 241 326 209 c 4
 328 197 328 173 328 161 c 5
 318 121 290 81 250 49 c 4
 216 25 176 9 140 1 c 4
 124 -1 94 -1 82 1 c 4
 40 9 12 33 4 67 c 5
 0 77 0 101 2 113 c 4
 12 153 40 193 80 225 c 4
 116 253 158 269 200 273 c 4
EndSplineSet
EndChar
StartChar: uniE0FB
Encoding: 57595 57595 24
Width: 540
GlyphClass: 2
Flags: HMW
VStem: 292 34<42 98 98 154 345 368 368 378 565 594 594 604 798 818 818 830 1030 1042>
Fore
292 681 m 5
 292 1181 l 5
 310 1181 l 5
 326 1181 l 5
 326 1169 l 6
 330 1113 350 1061 394 989 c 4
 398 981 410 961 422 943 c 6
 466 869 l 6
 494 819 510 777 518 733 c 5
 518 717 518 681 516 665 c 4
 514 651 510 633 504 621 c 6
 500 613 l 5
 504 603 l 6
 510 589 518 569 522 555 c 4
 534 501 530 453 506 401 c 5
 502 385 l 5
 506 375 l 6
 516 353 522 329 526 305 c 4
 530 291 530 269 528 257 c 4
 526 233 514 209 500 189 c 5
 494 183 l 5
 502 169 l 6
 530 113 540 65 532 5 c 4
 528 -37 514 -83 498 -121 c 4
 490 -135 490 -137 482 -141 c 4
 476 -143 472 -143 466 -141 c 4
 458 -139 454 -135 452 -129 c 4
 450 -123 450 -119 454 -107 c 5
 466 -87 478 -53 482 -31 c 4
 494 9 494 49 490 77 c 4
 482 117 458 157 418 205 c 4
 402 221 370 257 346 277 c 6
 326 293 l 5
 326 237 l 5
 326 181 l 5
 310 181 l 5
 292 181 l 5
 292 681 l 5
354 937 m 4
 346 945 336 957 334 961 c 5
 326 969 l 5
 326 957 l 6
 326 917 336 879 358 837 c 4
 372 807 390 781 430 721 c 6
 462 677 l 6
 466 669 472 663 472 665 c 5
 474 665 476 681 478 693 c 5
 478 725 468 765 448 805 c 4
 428 845 398 885 354 937 c 4
356 715 m 4
 344 725 334 737 330 739 c 5
 326 743 l 5
 326 733 l 6
 326 675 346 621 394 551 c 6
 424 505 l 6
 436 489 452 467 460 455 c 6
 474 433 l 5
 474 433 476 437 478 443 c 4
 486 465 488 493 486 513 c 4
 478 573 438 635 356 715 c 4
366 481 m 4
 352 493 338 509 334 513 c 5
 326 517 l 5
 326 507 l 6
 326 461 342 413 372 361 c 4
 386 337 398 321 432 275 c 4
 442 261 454 245 460 235 c 4
 466 227 470 221 472 221 c 4
 474 221 482 241 484 249 c 4
 494 285 482 331 452 377 c 4
 430 411 410 437 366 481 c 4
200 275 m 4
 212 277 240 275 250 275 c 5
 290 265 316 243 326 211 c 4
 328 199 328 175 328 163 c 5
 318 123 290 83 250 51 c 4
 216 27 176 11 140 3 c 4
 124 1 94 1 82 3 c 4
 40 11 12 35 4 69 c 5
 0 79 0 103 2 115 c 4
 12 155 40 195 80 227 c 4
 116 255 158 271 200 275 c 4
EndSplineSet
EndChar
StartChar: uniE0FC
Encoding: 57596 57596 25
Width: 327
GlyphClass: 2
Flags: HMW
VStem: 294 34<116 874 874 992 992 998>
Fore
328 209 m 1
 294 255 l 1
 294 1013 l 1
 294 1137 l 5
 328 1137 l 1
 328 1131 l 1
 328 209 l 1
200 275 m 0
 212 277 240 275 250 275 c 1
 290 265 316 243 326 211 c 0
 328 199 328 175 328 163 c 1
 318 123 290 83 250 51 c 0
 216 27 176 11 140 3 c 0
 124 1 94 1 82 3 c 0
 40 11 12 35 4 69 c 1
 0 79 0 103 2 115 c 0
 12 155 40 195 80 227 c 0
 116 255 158 271 200 275 c 0
EndSplineSet
EndChar
StartChar: uniE107
Encoding: 57607 57607 26
Width: 235
GlyphClass: 2
Flags: HMW
VStem: -18 258
Fore
64 717 m 5
 76 717 l 6
 80 717 100 693 156 625 c 4
 196 577 232 533 234 531 c 4
 244 521 244 509 240 495 c 4
 236 479 220 461 184 431 c 4
 172 421 158 411 156 407 c 6
 132 385 118 351 120 319 c 4
 120 293 128 273 148 253 c 5
 154 245 204 185 222 165 c 4
 232 153 232 149 228 141 c 5
 226 133 216 129 208 133 c 5
 200 141 l 6
 174 167 110 183 80 169 c 4
 70 165 64 157 60 141 c 4
 48 109 56 47 78 17 c 4
 84 9 84 7 80 3 c 4
 78 1 74 1 72 3 c 5
 68 5 52 25 44 41 c 6
 20 73 0 117 -12 149 c 4
 -24 187 -26 213 -18 229 c 5
 -16 237 -12 241 -4 243 c 5
 16 253 80 241 134 219 c 6
 138 217 l 5
 136 221 l 5
 132 223 92 269 36 337 c 4
 -4 385 -6 385 -4 401 c 6
 -4 413 l 5
 4 429 20 445 54 477 c 5
 66 485 80 497 82 501 c 5
 116 533 128 585 108 625 c 5
 104 637 100 645 76 669 c 5
 66 683 56 695 56 697 c 5
 52 703 56 713 64 717 c 5
EndSplineSet
EndChar
StartChar: uniE109
Encoding: 57609 57609 27
Width: 250
GlyphClass: 2
Flags: HMW
HStem: -260 464
VStem: -2 252<127 170>
Fore
56 204 m 0
 72 208 88 204 104 196 c 1
 118 184 124 172 132 146 c 1
 136 120 140 114 148 108 c 1
 160 104 164 106 176 116 c 0
 188 124 212 152 220 168 c 1
 222 170 224 174 228 176 c 1
 232 180 244 180 248 172 c 1
 250 170 l 1
 190 -36 l 2
 156 -150 128 -244 128 -248 c 1
 126 -252 112 -260 100 -260 c 0
 92 -260 82 -256 76 -252 c 1
 72 -252 72 -250 72 -250 c 1
 128 -88 l 1
 188 76 l 1
 176 72 l 2
 128 56 86 50 60 56 c 0
 36 64 16 80 6 100 c 0
 0 112 -2 120 -2 134 c 0
 -2 144 -2 148 0 156 c 0
 8 180 28 198 56 204 c 0
EndSplineSet
EndChar
StartChar: uniE10A
Encoding: 57610 57610 28
Width: 300
GlyphClass: 2
Flags: HMW
VStem: -24 324<-116 170 -96 170>
Fore
110 204 m 0
 126 208 144 204 158 196 c 1
 172 184 180 172 186 146 c 0
 192 120 196 114 204 108 c 1
 214 104 220 108 232 116 c 1
 240 124 252 140 264 156 c 0
 276 176 276 176 280 176 c 1
 286 180 294 180 298 172 c 1
 300 170 l 1
 212 -164 l 2
 162 -346 122 -496 120 -498 c 2
 120 -500 112 -506 104 -508 c 0
 92 -512 80 -510 70 -504 c 1
 68 -500 64 -500 64 -500 c 1
 68 -494 164 -176 164 -176 c 2
 164 -174 158 -176 150 -180 c 1
 132 -184 112 -190 96 -192 c 0
 76 -196 48 -196 38 -192 c 1
 14 -188 -8 -172 -16 -152 c 1
 -24 -140 -24 -132 -24 -116 c 2
 -24 -96 l 1
 -16 -80 -8 -66 6 -56 c 0
 34 -40 70 -42 92 -64 c 0
 100 -72 104 -84 108 -104 c 0
 114 -132 116 -136 126 -140 c 1
 136 -146 144 -144 158 -128 c 0
 172 -114 190 -90 196 -76 c 1
 196 -72 242 74 242 76 c 1
 242 76 236 74 228 72 c 0
 180 56 140 50 116 56 c 0
 92 64 72 80 60 100 c 0
 54 112 52 120 52 134 c 0
 52 144 52 148 56 156 c 0
 64 180 84 198 110 204 c 0
EndSplineSet
EndChar
StartChar: uniE10E
Encoding: 57614 57614 29
Width: 274
GlyphClass: 2
Flags: HMW
VStem: 0 96<-364 -163> 58 38<-319 -280 -280 -269 -55 -34 -34 -16 -16 -12 242 268> 178 38<-242 -232 -232 -166 -166 -166 14 18 18 36 36 96 96 96 270 280 280 288 288 314> 178 98<-242 -64 -166 -64 -99 18 -99 96>
Fore
190 707 m 5x20
 200 713 212 707 216 699 c 5
 216 623 l 6x20
 216 587 216 555 218 555 c 5
 234 561 l 6
 242 563 252 567 254 567 c 4
 262 569 270 563 272 557 c 5
 276 553 276 549 276 519 c 4x10
 276 479 276 479 268 473 c 6
 268 471 258 467 242 459 c 6
 216 449 l 5
 216 371 l 6x20
 216 327 216 291 218 291 c 5
 234 299 l 5
 242 301 252 305 254 305 c 4
 262 307 270 301 272 295 c 5
 276 291 276 287 276 255 c 4x10
 276 217 276 215 268 211 c 6
 268 207 258 203 242 195 c 5
 216 187 l 5
 216 103 l 5
 216 15 l 5
 208 1 188 -1 180 15 c 5
 180 17 178 25 178 93 c 6
 178 169 l 5
 136 151 l 5
 96 135 l 5xa0
 96 55 l 5
 96 -29 l 5
 88 -45 66 -45 60 -29 c 4
 58 -25 58 -15 58 47 c 4x40
 58 85 58 117 56 117 c 5
 40 111 l 6
 32 107 24 103 20 103 c 4
 12 103 4 107 2 115 c 5
 0 119 0 123 0 153 c 4x80
 0 191 0 191 6 199 c 5
 8 199 16 205 32 211 c 6
 58 223 l 5
 58 301 l 6x40
 58 345 58 379 56 379 c 5
 40 373 l 6
 32 371 24 367 20 367 c 5
 12 365 4 371 2 377 c 4
 0 381 0 385 0 415 c 4x80
 0 455 0 455 6 461 c 4
 8 463 16 467 32 475 c 6
 58 485 l 5
 58 567 l 6
 58 639 58 651 60 655 c 4
 66 669 88 671 96 655 c 5
 96 577 l 5
 98 503 l 5
 138 519 l 5
 178 537 l 5x50
 178 615 l 6
 178 683 178 695 180 699 c 4
 182 703 184 707 190 707 c 5x20
178 353 m 5
 178 431 l 5
 136 415 l 5
 96 399 l 5xa0
 96 319 l 6
 96 241 96 239 100 239 c 5
 140 257 l 5
 178 275 l 5x50
 178 353 l 5
EndSplineSet
EndChar
StartChar: uniE10F
Encoding: 57615 57615 30
Width: 174
GlyphClass: 2
Flags: HMW
VStem: 68 40<-260 -248 -248 -200 -200 -200 -60 -14 -14 16 16 62 62 62 202 248 248 262> 68 108<-260 -64 -200 -64 -90 -64 -98 -14 -98 62 172 199>
Fore
80 336 m 1x80
 88 340 100 336 104 326 c 1
 108 322 108 318 108 262 c 2
 108 202 l 1x80
 128 216 l 2
 148 232 152 234 160 232 c 1
 164 232 172 228 172 222 c 2
 176 218 176 216 176 182 c 0x40
 176 148 176 148 172 144 c 2
 172 140 166 136 140 116 c 2
 108 92 l 1
 108 16 l 1
 108 -60 l 1x80
 128 -46 l 2
 148 -30 152 -28 160 -30 c 1
 164 -32 172 -36 172 -40 c 2
 176 -44 176 -48 176 -80 c 0x40
 176 -116 176 -116 172 -120 c 2
 172 -124 166 -128 140 -148 c 2
 108 -172 l 1
 108 -248 l 2
 108 -312 108 -322 104 -324 c 1
 100 -340 76 -340 70 -324 c 1
 68 -322 68 -318 68 -260 c 2
 68 -200 l 1x80
 48 -216 l 2
 28 -232 24 -232 16 -232 c 0
 12 -232 4 -226 2 -220 c 0
 0 -216 0 -214 0 -180 c 0
 0 -148 0 -146 2 -142 c 0
 4 -138 8 -134 36 -114 c 2
 68 -90 l 1x40
 68 -14 l 1
 68 62 l 1x80
 48 48 l 2
 28 32 24 30 16 32 c 1
 12 32 4 36 2 42 c 0
 0 46 0 48 0 82 c 0
 0 116 0 116 2 120 c 0
 4 124 8 128 36 148 c 2
 68 172 l 1x40
 68 248 l 2
 68 312 68 322 70 324 c 2
 72 330 76 332 80 336 c 1x80
EndSplineSet
EndChar
StartChar: uniE110
Encoding: 57616 57616 31
Width: 400
GlyphClass: 2
Flags: HMW
HStem: -144 42G<333 335>
VStem: 68 40<-288 -284 -284 -220 -220 -220 -106 -36 -36 -26 -26 44 44 44 156 224 224 232> 180 40<-260 -256 -256 -188 -188 -188 -32 -4 -4 6 6 76 76 76 226 256 256 291> 294 38<-230 -224 -306 -156 -44 28 28 38 220 284 284 290 290 317>
Fore
306 372 m 1
 316 378 328 372 332 364 c 1
 332 290 l 1
 332 220 l 1
 356 228 l 1
 368 230 380 232 382 232 c 0
 388 232 396 228 400 222 c 1
 400 184 l 1
 400 144 l 1
 398 140 396 136 392 136 c 1
 388 132 336 118 334 118 c 0
 332 118 332 82 332 38 c 2
 332 -44 l 1
 356 -36 l 2
 368 -32 380 -30 382 -30 c 0
 388 -30 396 -36 400 -40 c 1
 400 -80 l 1
 400 -120 l 1
 398 -124 396 -128 392 -128 c 1
 388 -130 336 -144 334 -144 c 0
 332 -144 332 -180 332 -224 c 2
 332 -306 l 1
 324 -320 304 -322 296 -308 c 1
 296 -304 294 -296 294 -230 c 2
 294 -156 l 1
 256 -168 l 1
 220 -176 l 1
 220 -256 l 2
 220 -324 220 -332 218 -336 c 0
 210 -350 190 -348 184 -334 c 1
 180 -332 180 -326 180 -260 c 2
 180 -188 l 1
 178 -188 162 -192 142 -200 c 1
 108 -208 l 1
 108 -284 l 2
 108 -348 108 -360 104 -364 c 1
 100 -380 76 -380 70 -364 c 0
 68 -360 68 -350 68 -288 c 2
 68 -220 l 1
 44 -226 l 2
 32 -228 20 -232 20 -232 c 1
 12 -232 4 -228 2 -220 c 1
 0 -216 0 -212 0 -182 c 0
 0 -152 0 -146 2 -144 c 1
 4 -140 6 -136 10 -134 c 2
 12 -132 66 -116 68 -116 c 1
 68 -36 l 1
 68 44 l 1
 44 36 l 1
 20 32 l 2
 12 32 4 36 2 44 c 2
 0 46 0 50 0 80 c 0
 0 110 0 116 2 120 c 0
 4 124 6 128 10 128 c 1
 12 132 66 146 68 146 c 1
 68 224 l 2
 68 292 68 304 70 306 c 1
 76 320 96 322 104 308 c 0
 106 304 108 296 108 232 c 2
 108 156 l 1
 144 168 l 1
 180 178 l 1
 180 256 l 2
 180 326 182 334 184 336 c 1
 192 352 212 350 218 336 c 0
 220 332 220 328 220 260 c 0
 220 192 220 188 222 188 c 1
 224 190 240 194 260 200 c 2
 294 208 l 1
 294 284 l 2
 294 350 294 360 296 364 c 0
 298 368 300 372 306 372 c 1
294 28 m 1
 294 108 l 1
 294 108 276 102 256 96 c 2
 220 86 l 1
 220 6 l 2
 220 -70 220 -74 222 -74 c 1
 224 -72 240 -68 260 -64 c 2
 294 -54 l 1
 294 28 l 1
180 -4 m 1
 180 76 l 1
 144 64 l 1
 108 56 l 1
 108 -26 l 1
 108 -106 l 1
 114 -104 l 1
 116 -104 134 -98 152 -94 c 2
 180 -84 l 1
 180 -4 l 1
EndSplineSet
EndChar
StartChar: uniE111
Encoding: 57617 57617 32
Width: 166
GlyphClass: 2
Flags: HMW
VStem: -8 52<356 376 343 376> -4 46 124 50<-376 -356 -376 -350 -376 -258> 128 42<-96 -68>
Fore
6 380 m 2x40
 16 384 28 382 38 378 c 2
 44 376 l 1
 44 350 l 2x80
 44 336 44 294 42 258 c 0
 40 222 40 192 40 192 c 1
 42 192 66 196 96 202 c 0
 132 208 150 212 152 212 c 0
 158 212 162 208 164 202 c 1
 168 198 l 1
 170 -68 l 2x50
 172 -216 174 -344 174 -356 c 2
 174 -376 l 1x20
 168 -378 l 1
 156 -384 142 -384 128 -378 c 2x10
 124 -376 l 1
 124 -350 l 1
 124 -258 l 2
 126 -222 126 -192 126 -192 c 1
 124 -192 100 -196 72 -202 c 0
 36 -208 16 -212 16 -212 c 2
 8 -212 4 -208 2 -202 c 2
 0 -196 l 1
 -4 68 l 2x60
 -4 216 -8 344 -8 356 c 2
 -8 376 l 1x80
 -4 376 l 1
 0 378 4 380 6 380 c 2x40
130 110 m 0
 130 112 130 112 128 112 c 2
 40 96 l 1
 40 94 36 -112 36 -112 c 1
 38 -112 126 -96 128 -96 c 1x10
 128 -94 130 66 130 110 c 0
EndSplineSet
EndChar
StartChar: uniE112
Encoding: 57618 57618 33
Width: 200
GlyphClass: 2
Flags: HMW
VStem: -20 40<112 136 112 112>
Fore
-12 630 m 5
 0 630 14 630 24 626 c 5
 28 622 l 5
 28 622 22 338 20 302 c 6
 20 278 l 5
 26 282 l 6
 48 298 76 310 104 312 c 4
 132 314 152 306 168 286 c 5
 178 278 184 270 188 258 c 5
 204 228 204 194 190 166 c 4
 184 152 174 140 160 126 c 4
 146 112 132 102 100 78 c 4
 56 46 52 40 40 26 c 4
 34 18 28 12 28 10 c 5
 22 6 14 2 8 2 c 4
 4 2 -4 6 -8 12 c 5
 -16 18 -16 0 -20 300 c 4
 -24 450 -26 586 -28 598 c 5
 -28 622 l 5
 -22 626 l 5
 -20 626 -16 628 -12 630 c 5
96 266 m 6
 92 270 88 270 82 270 c 4
 72 270 68 270 60 266 c 4
 44 258 32 238 30 218 c 4
 30 214 28 190 28 164 c 4
 28 120 28 94 32 72 c 5
 32 66 l 5
 44 76 l 6
 60 90 84 112 92 124 c 4
 104 142 116 162 120 178 c 4
 122 186 122 190 122 204 c 4
 122 218 122 222 120 230 c 4
 116 250 108 260 96 266 c 6
EndSplineSet
EndChar
StartChar: uniE113
Encoding: 57619 57619 34
Width: 200
GlyphClass: 2
Flags: HMW
VStem: 140 44<-144 -94> 148 44
Fore
156 462 m 1x40
 168 464 184 464 192 460 c 0
 196 458 196 456 196 456 c 1
 196 456 194 322 192 158 c 0x40
 186 -92 184 -140 184 -144 c 1x80
 180 -160 164 -168 152 -160 c 0
 144 -156 140 -154 132 -140 c 1
 120 -126 114 -120 70 -88 c 0
 36 -64 24 -54 10 -40 c 0
 -4 -26 -12 -14 -20 0 c 0
 -32 28 -32 62 -20 92 c 0
 -14 104 -8 112 0 120 c 0
 20 140 40 148 64 146 c 0
 94 144 124 132 144 116 c 2
 148 112 l 1
 148 136 l 2
 148 172 142 456 142 456 c 1
 144 458 152 460 156 462 c 1x40
108 100 m 0
 100 104 100 104 92 104 c 0
 72 104 58 92 50 64 c 0
 48 56 48 52 48 38 c 0
 48 24 48 20 50 12 c 0
 54 -4 64 -24 78 -42 c 0
 88 -54 108 -76 126 -90 c 2
 140 -100 l 1
 140 -94 l 2
 142 -72 142 -46 142 -2 c 0
 140 24 140 48 140 52 c 0x80
 138 68 128 84 120 92 c 1
 116 94 112 98 108 100 c 0
EndSplineSet
EndChar
StartChar: uniE114
Encoding: 57620 57620 35
Width: 380
GlyphClass: 2
Flags: HMW
VStem: 3.17682 40<-84 56 -84 -84 112 136 112 112> 161.177 46 169.177 46
Fore
11.1777 630 m 5xa0
 23.1777 630 37.1777 630 47.1777 626 c 5
 51.1777 622 l 5
 51.1777 622 45.1777 340 43.1777 302 c 6
 43.1777 278 l 5
 51.1777 286 l 6
 71.1777 304 93.1777 314 119.178 312 c 4
 133.178 310 147.178 306 159.178 298 c 5
 165.178 292 l 5
 165.178 292 163.178 366 161.178 454 c 4
 159.178 542 159.178 614 159.178 618 c 6
 159.178 622 l 5
 163.178 626 l 5
 175.178 630 187.178 630 199.178 628 c 5
 203.178 626 211.178 624 213.178 622 c 5
 213.178 622 207.178 338 207.178 302 c 6
 207.178 278 l 5xc0
 211.178 282 l 6
 227.178 298 255.178 308 279.178 310 c 4
 299.178 314 315.178 310 335.178 302 c 4
 369.178 284 391.178 238 383.178 194 c 4
 379.178 170 367.178 150 345.178 126 c 4
 331.178 110 317.178 100 283.178 76 c 6
 235.178 40 l 5
 235.178 38 229.178 30 223.178 26 c 5
 219.178 18 215.178 12 211.178 10 c 6
 207.178 6 199.178 2 195.178 2 c 4
 187.178 2 179.178 6 175.178 12 c 4
 171.178 18 171.178 20 169.178 78 c 4
 167.178 108 167.178 134 167.178 134 c 5
 163.178 126 l 5
 153.178 116 137.178 102 107.178 74 c 4
 71.1777 42 67.1777 38 59.1777 26 c 4
 55.1777 20 51.1777 14 49.1777 10 c 5
 45.1777 6 37.1777 2 31.1777 2 c 4
 27.1777 2 19.1777 6 15.1777 12 c 5
 7.17773 18 7.17773 0 3.17773 300 c 4
 -0.822266 450 -2.82227 586 -4.82227 598 c 5
 -4.82227 622 l 5
 1.17773 626 l 5
 3.17773 626 7.17773 628 11.1777 630 c 5xa0
95.1777 266 m 4
 87.1777 272 71.1777 270 63.1777 262 c 5
 55.1777 256 47.1777 238 43.1777 222 c 5
 43.1777 82 l 5
 45.1777 74 47.1777 66 47.1777 64 c 4
 47.1777 62 51.1777 66 57.1777 74 c 4
 87.1777 108 103.178 138 111.178 174 c 6
 115.178 182 115.178 188 115.178 206 c 4
 115.178 218 115.178 230 113.178 234 c 6
 111.178 250 103.178 262 95.1777 266 c 4
277.178 266 m 5
 267.178 272 251.178 270 239.178 262 c 4
 229.178 256 221.178 242 217.178 228 c 4
 215.178 222 215.178 218 215.178 174 c 4
 213.178 126 213.178 100 215.178 72 c 6
 215.178 66 l 5xa0
 223.178 70 l 5
 247.178 92 267.178 114 279.178 130 c 4
 289.178 146 295.178 158 299.178 178 c 6
 303.178 186 303.178 188 303.178 206 c 4
 303.178 222 303.178 222 299.178 234 c 4
 295.178 250 287.178 262 277.178 266 c 5
EndSplineSet
EndChar
StartChar: uniE115
Encoding: 57621 57621 36
Width: 362
GlyphClass: 2
Flags: HMW
VStem: -28 56<451 454> -24 48<250 251> -18 38 136 52<116 132> 140 44<188 216> 146 46
Fore
-12 464 m 1x80
 0 464 12 464 22 460 c 1
 28 456 l 1
 28 434 l 2x80
 26 384 24 252 24 250 c 1
 24 250 136 312 138 314 c 1
 138 316 136 344 136 382 c 2
 136 452 l 2x50
 136 456 136 456 140 460 c 1
 156 466 170 466 184 460 c 1x08
 190 456 l 1
 190 436 l 1
 188 424 188 398 188 378 c 2
 188 344 l 1
 226 364 l 2
 260 384 264 388 270 388 c 0
 280 388 288 384 296 376 c 1
 296 364 l 2
 296 356 296 352 292 346 c 0
 290 344 270 332 238 314 c 2
 188 284 l 1x10
 186 280 186 252 184 216 c 2
 184 132 l 1
 184 112 l 1x08
 188 116 l 2
 204 132 232 142 256 144 c 0
 276 148 292 144 312 136 c 0
 346 118 368 72 360 28 c 0
 356 4 344 -16 322 -40 c 0
 308 -56 294 -66 260 -90 c 2
 212 -126 l 1
 212 -128 206 -136 200 -140 c 1
 196 -148 192 -154 188 -156 c 2x10
 184 -160 176 -164 172 -164 c 0
 164 -164 156 -160 152 -154 c 0
 148 -148 148 -146 146 -88 c 0x04
 144 -58 144 -32 144 -32 c 1
 140 -40 l 1
 130 -50 114 -64 84 -92 c 0
 48 -124 44 -128 36 -140 c 0
 32 -146 28 -152 26 -156 c 1
 22 -160 14 -164 8 -164 c 0
 4 -164 -4 -160 -8 -154 c 1
 -16 -148 -16 -156 -18 8 c 0x28
 -20 92 -20 160 -20 162 c 2
 -20 166 l 1
 -66 140 l 2
 -100 120 -112 114 -116 112 c 1
 -126 112 -136 116 -140 124 c 0
 -144 130 -144 132 -144 138 c 0
 -144 144 -144 146 -142 150 c 1
 -140 152 -138 156 -136 156 c 1
 -136 158 -110 172 -80 190 c 0
 -48 208 -24 222 -24 224 c 2
 -24 336 l 2x40
 -26 396 -28 450 -28 452 c 0
 -28 456 -28 456 -22 460 c 1
 -20 460 -16 462 -12 464 c 1x80
140 252 m 2x08
 140 256 140 256 138 256 c 1
 80 224 l 1
 24 192 l 1
 24 186 l 2x48
 24 184 22 166 22 148 c 2
 20 112 l 1x20
 28 120 l 2
 48 138 70 148 96 146 c 0
 110 144 124 140 136 132 c 1x90
 142 126 l 1
 142 126 140 154 140 188 c 2
 140 252 l 2x08
72 100 m 0
 64 106 48 104 40 96 c 1
 32 90 24 72 20 56 c 1
 20 -84 l 1x20
 22 -92 24 -100 24 -102 c 0
 24 -104 28 -100 34 -92 c 0
 64 -58 80 -28 88 8 c 2
 92 16 92 22 92 40 c 0
 92 52 92 64 90 68 c 2
 88 84 80 96 72 100 c 0
254 100 m 1
 244 106 228 104 216 96 c 0
 206 90 198 76 194 62 c 0
 192 56 192 52 192 8 c 0
 190 -40 190 -66 192 -94 c 2
 192 -100 l 1x04
 200 -96 l 1
 224 -74 244 -52 256 -36 c 0
 266 -20 272 -8 276 12 c 2
 280 20 280 22 280 40 c 0
 280 56 280 56 276 68 c 0
 272 84 264 96 254 100 c 1
EndSplineSet
EndChar
StartChar: uniE116
Encoding: 57622 57622 37
Width: 250
GlyphClass: 2
Flags: HMW
HStem: 28 102
VStem: 152 98<-109 -32 -34 0> 152 108<-132 -86>
Fore
-6 132 m 1xa0
 -4 134 -4 136 -2 136 c 0
 0 136 20 132 44 130 c 0
 74 128 90 124 92 124 c 1
 96 122 98 118 98 100 c 0
 100 72 108 48 120 32 c 1
 124 28 l 1
 128 32 l 2
 144 48 152 72 152 100 c 0xc0
 152 118 152 122 158 124 c 1
 162 128 252 136 256 134 c 2
 256 134 258 132 260 132 c 1xa0
 260 128 260 126 256 82 c 0
 252 56 250 36 250 32 c 1xc0
 248 28 244 28 232 28 c 0
 200 26 180 20 164 8 c 1
 160 8 156 4 156 4 c 1
 152 0 l 1xa0
 156 -4 l 1
 156 -4 160 -8 164 -8 c 1
 180 -20 196 -24 228 -28 c 0
 244 -28 248 -28 250 -32 c 1xc0
 250 -36 252 -56 256 -82 c 0
 260 -126 260 -128 260 -132 c 1
 258 -132 256 -134 256 -134 c 2
 252 -136 162 -128 158 -124 c 1
 152 -122 152 -118 152 -100 c 0
 152 -72 144 -48 128 -32 c 2
 124 -28 l 1
 120 -32 l 1
 108 -48 100 -72 98 -100 c 0
 98 -118 96 -122 92 -124 c 1
 88 -128 0 -136 -4 -134 c 2
 -6 -134 -8 -132 -8 -132 c 1
 -10 -128 -10 -126 -4 -82 c 0
 -4 -56 0 -36 0 -32 c 1
 2 -28 4 -28 24 -28 c 1
 52 -24 72 -20 88 -8 c 2
 90 -8 94 -4 96 -4 c 1
 96 0 l 1
 96 4 l 1
 94 4 90 8 88 8 c 2
 70 20 50 26 18 28 c 0
 4 28 2 28 0 32 c 1
 0 36 -10 128 -10 128 c 1
 -8 130 -8 132 -6 132 c 1xa0
EndSplineSet
EndChar
StartChar: uniE119
Encoding: 57625 57625 38
Width: 111
GlyphClass: 2
Flags: MW
HStem: -56 112
Fore
46 56 m 0
 52 58 68 56 76 54 c 0
 92 48 104 36 110 20 c 0
 112 12 112 12 112 0 c 0
 112 -10 112 -12 110 -18 c 0
 104 -36 92 -48 74 -52 c 2
 68 -56 64 -56 56 -56 c 0
 48 -56 44 -56 40 -52 c 2
 20 -48 10 -36 4 -18 c 1
 0 -12 0 -10 0 0 c 0
 0 10 0 12 4 18 c 1
 4 26 12 36 16 40 c 0
 22 48 36 54 46 56 c 0
EndSplineSet
EndChar
StartChar: uniE0FD
Encoding: 57597 57597 39
Width: 328
Flags: W
TeX: 0 0 0 0
VStem: 0 36<-384 96> 294 34<332 818>
Fore
0 148 m 5
 0 -384 l 5
 36 -384 l 5
 36 96 l 5
 0 148 l 5
328 286 m 5
 294 332 l 5
 294 524 l 5
 294 818 l 5
 328 818 l 5
 328 1010 l 5
 328 286 l 5
200 352 m 4
 212 354 240 352 250 352 c 5
 290 342 316 320 326 288 c 4
 328 276 328 252 328 240 c 5
 318 200 290 160 250 128 c 4
 216 104 176 88 140 80 c 4
 124 78 94 78 82 80 c 4
 40 88 12 112 4 146 c 5
 0 156 0 180 2 192 c 4
 12 232 40 272 80 304 c 4
 116 332 158 348 200 352 c 4
EndSplineSet
EndChar
StartChar: uniE0FE
Encoding: 57598 57598 40
Width: 112
Flags: W
TeX: 0 0 0 0
HStem: -56 112<216.667 257.268 226 236>
Fore
226 56 m 0
 232 58 248 56 256 54 c 0
 272 48 284 36 290 20 c 0
 292 12 292 12 292 0 c 0
 292 -10 292 -12 290 -18 c 0
 284 -36 272 -48 254 -52 c 2
 248 -56 244 -56 236 -56 c 0
 228 -56 224 -56 220 -52 c 2
 200 -48 190 -36 184 -18 c 1
 180 -12 180 -10 180 0 c 0
 180 10 180 12 184 18 c 1
 184 26 192 36 196 40 c 0
 202 48 216 54 226 56 c 0
46 56 m 0
 52 58 68 56 76 54 c 0
 92 48 104 36 110 20 c 0
 112 12 112 12 112 0 c 0
 112 -10 112 -12 110 -18 c 0
 104 -36 92 -48 74 -52 c 2
 68 -56 64 -56 56 -56 c 0
 48 -56 44 -56 40 -52 c 2
 20 -48 10 -36 4 -18 c 1
 0 -12 0 -10 0 0 c 0
 0 10 0 12 4 18 c 1
 4 26 12 36 16 40 c 0
 22 48 36 54 46 56 c 0
EndSplineSet
EndChar
StartChar: uniE102
Encoding: 57602 57602 41
Width: 400
VWidth: 1240
Flags: W
TeX: 0 0 0 0
HStem: 244 32<261.237 301>
VStem: 340 21<257 1137>
Fore
361 229 m 1
 361 1137 l 1
 340 1137 l 5
 340 261 l 1
 340 257 l 1
 360 230 l 1
 361 229 l 1
249 276 m 2
 285 276 l 2
 301 276 305 276 313 274 c 0
 324 271 333 266 340 261 c 0
 342 259 343 258 345 256 c 0
 353 248 357 241 360 230 c 2
 361 228 l 2
 365 216 365 194 361 178 c 0
 351 132 333 94 309 68 c 0
 277 36 217 14 153 8 c 0
 87 0 57 4 37 24 c 0
 29 32 25 40 21 52 c 0
 17 64 17 86 21 102 c 0
 29 148 49 186 73 210 c 0
 85 224 97 232 121 244 c 0
 157 260 195 272 249 276 c 2
301 244 m 0
 287 248 273 244 245 230 c 0
 223 220 189 200 139 164 c 0
 85 132 61 110 53 96 c 1
 49 82 47 68 53 56 c 0
 63 36 85 28 109 36 c 0
 133 46 173 68 241 116 c 0
 295 148 319 170 327 184 c 0
 333 198 333 212 329 224 c 1
 321 236 313 240 301 244 c 0
EndSplineSet
EndChar
StartChar: uniE103
Encoding: 57603 57603 42
Width: 493
Flags: W
TeX: 0 0 0 0
HStem: 251 24<200 247.36>
VStem: 0 494<113 165 139 139>
Fore
214 275 m 4
 256 279 300 275 336 267 c 4
 400 255 456 223 480 187 c 4
 492 171 494 159 494 139 c 4
 494 119 492 107 480 91 c 4
 456 55 400 23 336 11 c 4
 280 -1 216 -1 158 11 c 4
 94 23 40 55 16 91 c 4
 4 107 0 119 0 139 c 4
 0 159 4 171 16 187 c 4
 48 235 124 271 214 275 c 4
240 247 m 4
 228 251 208 251 200 251 c 5
 184 247 168 235 160 221 c 4
 146 199 142 159 152 125 c 4
 164 77 204 41 258 29 c 4
 270 27 292 27 300 29 c 4
 320 35 334 51 342 71 c 4
 350 93 352 123 344 153 c 4
 332 199 292 235 240 247 c 4
EndSplineSet
EndChar
